<?xml version="1.0" encoding="utf-8"?>
<!-- Generator: Adobe Illustrator 21.1.0, SVG Export Plug-In . SVG Version: 6.00 Build 0)  -->
<svg version="1.1" id="圖層_1" xmlns="http://www.w3.org/2000/svg" xmlns:xlink="http://www.w3.org/1999/xlink" x="0px" y="0px"
	 viewBox="0 0 550.9 993.2" style="enable-background:new 0 0 550.9 993.2;" xml:space="preserve">
<style type="text/css">
	.st0{fill:#7C7C7C;stroke:#FFFFFF;stroke-width:2;stroke-linecap:round;stroke-linejoin:round;}
	.st1{fill:#E24444;stroke:#FFFFFF;stroke-width:2;stroke-linecap:round;stroke-linejoin:round;}
	.st2{fill:#FFFFFF;}
	.st3{fill:#116975;}
</style>
<path id="TWN1156" class="st0" d="M290.7,555.5l1.9,5.8l-3,5l-5.6,2.4l-1.4,3.2l1,4l5.6,3.6l6.3,5.2l2.8,7.6l0.3,2.5l-15.6,3.8
	l-6.4,4.1l-4,3.9l-7.8,5.1l-0.9,5.7l2.3,6l-2.7,4.9l-7.4,4l-0.8,6.9l2.1,9.9l-3,13.2l-0.1,11.2l-4.3,5.9l-8.5,7.2l-2.3,9.8l1.3,8.1
	l3,4.6l6.2,6.4l1.2,4.9l-3.9,0.5l-5.2-0.9l-4.3,0.2l-8.5,6.7l-5.9-5.5l-7.6-8.9l-7.2,1.8l-6.6,5.9l-13.1-6.6l-9.4,4.5l-6.4,7.1
	l-8,2.8l-17.8-1.1l-1.7,4.9L144,739l-2.6,7.9l0.5,7l-0.1,9.5l-5.7,21.2l-0.1,7.1l2.7,7.5l0.4,8.2l-8.1,20.5l-2.6-1.1l-1.6,0.1
	l-1.8,0.7h-2.2l-13-10.2l-12.1-17.1l12.7,15.4l-1.5-7.4l-3.8-7.2l-5.3-6l-9-8.4l-3.5-4.2l-1.6-4.8l2.2-4.6L89,769l-1.5-5.8l-2.7-5.6
	l-4.9-7.7l-4.6-10.2l-1-4.5l0.1-3l1.5-3.6l0.3-2.4l-0.5-1.2l-2.7-2.3l-0.5-2.3l-2.9-4.9l-0.7-2l-2.1-13.6l6.1-3.7l0.2,0.5l3.9,8.6
	l4.8,2.5l15.7,2.2l8.2-0.9l8.4,1l4.2-1.5l3.5-2.6l6.5-2.6l6.3-4.4l2.4-5.5l3-5.2l5.3-7.1l6.1-6.4l6.5-5.4l7.4-7.2l6.5-8.4l10-17
	l10.4-15.1l2.3-6.6l-1-6.7l-1.4-4.5l0.1-5l3.6-3.5l6.9,0.7l5.8-0.6l12.3-7.3l4.5-5.4l7.9-6.1l7.7-4.3l4.2-5l3.6-6.8l8.5-6.8
	l18.5-9.4l4.3,1l5.8,2.2l4.2,5.9L290.7,555.5L290.7,555.5z"/>
<path id="TWN1158" class="st0" d="M120.3,864.2l2,2.9l-0.3,1l-2.7,1.8l-5,4.3l-0.9-3.3l1.4-2.7l2.8-3.6h2L120.3,864.2L120.3,864.2z
	 M247,720.9l3.5,6.6l0.7,4.9l5.4,1.3l5.5,3.6l-2.8,13.8l-0.1,5.2l-2,5l-9.8,4.1l-4.8,2.7l-7.6,1.6l-5.4,4.5l-2.4,6.6l-3.7,6.6
	l-3,7.5l-0.8,14.7l1.2,6.5l2,6.1l1.1,7.1v5.4l2.6,5l4.6,5.6l-2.5,3.8l-5.3,3.2l-2.1,3.9l-0.5,4.5l2.7,3.9l3.4,1.7l3.1,4.4l-0.1,5.7
	l0.6,6.1l3.2,5.9l4.6,4.9l10.2,4.7l4.5-0.3l0.9,51.6l-1.6,7.3l-2.5,6l-3.4,2.5l-4,3.7l0.1,8.3l1.5,9.2l-0.4,5.9l-4.5-6.8l-6.8-5.2
	l-7.8-3.5l-8-1.9l-0.3,6.6l-2.3,2.3l-3.4-0.8l-3.7-3.1l-0.2-2.4l1.3-7l-5.5-9.2l-0.5-2.4l0.1-2.1l0.4-3.2v-10.8l0.5-3.1l2.5-3.6
	l0.5-3L186,881.4l-1.6-2.9l-5.5-6.8l-4.4-9.9l-2-2.8l-8.2-6.5l-5.4-3l-0.9-3.7l-0.7-1.3l-4.4-2.9l-10-4.8l-4.5-3.1l-4.8-4.2
	l-2.6-1.6l8.1-20.5l-0.4-8.2l-2.7-7.5l0.1-7.1l5.7-21.2l0.1-9.5l-0.5-7l2.6-7.9l1.3-7.2l1.7-4.9l17.8,1.1l8-2.8l6.4-7.1l9.4-4.5
	l13.1,6.6l6.6-5.9l7.2-1.8l7.6,8.9l5.9,5.5l8.5-6.7l4.3-0.2L247,720.9L247,720.9z"/>
<path id="TWN1160" class="st0" d="M34.7,666.5l-0.6,1.2l-2.3-2l-1.7-4.2l0.3-1.3h0.7l0.9,1.2l0.7,1.9l2.1,2.2L34.7,666.5L34.7,666.5
	z M35.2,638.9l-2.9,6.8l3.9-13.3l0.6,0.1L35.2,638.9z M38.7,626.1l3.5-9.9l0.5-0.1l0.2,1.9L38.7,626.1z M45,603.6l-0.4,2.4l0.6-10.6
	l0.5,0.2L45,603.6L45,603.6z M194.5,615.1l-2.3,6.6l-10.4,15.1l-10,17l-6.5,8.4l-7.4,7.2l-6.5,5.4l-6.1,6.4l-5.3,7.1l-3,5.2
	l-2.4,5.5l-6.3,4.4l-6.5,2.6l-3.5,2.6l-4.2,1.5l-8.4-1l-8.2,0.9l-15.7-2.2l-4.8-2.5l-3.9-8.6l-0.2-0.5l-6.1,3.7l-1-6.3L64,690
	l-3.9-3.9l4.7-3.4l2.7-6.1l-1.1-5.2l-6.3-0.9l-1.2,1.8l-1.1,3.4l-1.8,2.7l-3.3-0.1l-1.3-2.3l0.5-7l-0.8-2.4l-4.1-1.8l-2.3,2.1
	l-1.8,2.9l-2.8,0.7l-2.9-2.5l-0.7-3.5l0.7-3.4l1.1-2.3l3-1.6l3.7-0.5l3.1-1l1-3l-1.4-1.5l-9.4-2.4v-1.9l7.9-0.1l-0.8-2.6l-4.3-3.7
	l-2.8-3.2l0.7-4l2.5-1.5l2.7-0.9l1.4-2.5l-0.8-3.9l-1.4-3.2l0.9-3l1.4-3.7L48,612l-0.5-2.3l0.5-2.3l3.3-9l1.6-1.7l2.6-0.6l-3.7-2.5
	l1.6-4.1l5.2,2l8.9,1.3l7.2,1.8l6.2-2.8l2.5-4.9l5.8-3.6l6.6-5.1l4.7-4.8l6.1-4.6l7.8-3.5l15.2-2.8l8.5-0.5l7.2,2.4l4,2.4l2.1,4.2
	l1.7,5.1l9.9,10.1l1,7.5l-1.8,14.2l1.6,4.6l4.5,3.5h3.8l5.3-2.4l5-0.6l3.7,1.1L194.5,615.1L194.5,615.1z"/>
<path id="TWN1161" class="st0" d="M275.2,187.2l-0.2,0.2l-4.6,1.1l-4.4-1.7l-2.7-3.8l-4.3-2.6l-6.9-2.7l1.2-4.1l5.5-11.4l2.2-3
	l0.7-1.5V156l-0.7-1.9l-1.1-2.2l1.5-3l1.8-1.8l8.3,3.6l15.1,4.8l5.4,2.8l3.8,3.9l1.9,3.7l-1,3.6l-2.4,1.4l-5.1,0.9l-5.9,2.4
	l-3.4,4.3l-2.3,5.6L275.2,187.2L275.2,187.2z"/>
<path id="TWN1162" class="st0" d="M394,221.8l-2.3,6.5l-1.4,4.7l0.6,4.4l-3.8,5.8l-14,14.2l-4.3,10.5l-2.8-0.8l-10.6,1l-0.8,0.6
	l-0.6-4.9l-4.6-7.8l-3.3-3.3l-1.3-4.4l-5-4l-12.5,3.2l-4.8-0.5l-6.8,0.5l-7.7,2.1l-4.1-1l0.9-5.1l1.3-4.6l-1-4l-1-2.9l1-3.1l0.8-3.5
	l0.3-3.9l-0.7-5.2l-3.9-3.4l-12.1-5.7l-6-4.5l-3.9-4.4l-4.4-11.1l2.4-3.1l2.3-5.6l3.4-4.3l5.9-2.4l5.1-0.9l2.4-1.4l1-3.6l-1.9-3.7
	l-3.8-3.9l-5.4-2.8l-15.1-4.8l-8.3-3.6l1.5-2.3l0.6-3.9l0.9-2.9l2-2.9l2.7-2.1l2.5-0.9l-0.2-1.2l0.7-2.9l2.2-6.1l2.1-3.3l3.1,1.1
	l13.7-1l4.6,3.1l4,8.7l5,2l4.3,1.2l4.1,2l6.8,2.2l3.6,4.2l-1.1,5.8l3.5,3.7l6.5,2.1l4.2,3.1l3.1,3.1l3.8,0.7l3.9-0.3l3.4,3.5
	l2.6,4.5l4.3,2.2l3.4,2.6l0.4,5l1.6,7.3l-1.9,7.8l-4.6,6.5l0.5,4.3l5.2,3.9l6.2,3.8l5.5,0.9l4,2.9l7.3,4.1L394,221.8L394,221.8z"/>
<path id="TWN1163" class="st0" d="M533.3,147.1l2.1,0.5l1.6,2.2l-0.7,2.3l-3.8-0.1l-1.4-0.8l-1.7-2.7l0.9,0.3L533.3,147.1
	L533.3,147.1z M486.3,299.7h-1.1l-11.1-1.7l-18.5-11.1l-3.8,0.9l-2.4,6l-4.9,4.5H438l-8.3-3.2l-15-3.8l-6.5-3.1l-2.5-2.1l-5.9-4.7
	h-4.9l-4.7,2.3l-4,0.6l-3.7-2.5l-4.4-2.6l-4.9-1l-1.4-3.8l0.6-5.5l-3.6-1l4.3-10.5l14-14.2l3.8-5.8l-0.6-4.4l1.4-4.7l2.3-6.5
	l0.5-1.5l3.9-1.6l3.3,0.6l3.4-1.3l2.2-3.8l-3.1-12.4l5.4-3.9l3.1-0.9l5.7-1.6l4.9-1.8l3.8-3.3l5-3.5l6.6-3.2l3.9-2.8l-0.4-2l-1-3.2
	l-0.2-4.2l2-4.9l4.7-4l3.8-2.3l13-5.3l13.5-8.1l6.2-1.9l5-3.6l3.1-5l3.3-4.1l3.7-2l3.5-1.2l4.6-2.9l1.6-3.8l-2.5-3.6l1.4-2.9
	l11.2-2.3l3.7-2.5l8.4-4.4l5.9-1.3l3.3,1.9l0.8,1.1l-12,6l-5.5,4.7L505,141.8l-2.9,4.8l-2.3,6.8l-1.6,7.7l-0.5,7.6l0.3,7.4l3.3,15.5
	l-0.2,4l-1.5,3.9l0.2,8.1l3.5,6.3l6.5,4l7.6,1.4v1.8l-3.2-0.3l-3.1,0.3l-2.6,0.8l-1.9,1.4l2.7,5l1.3,6.5l-0.8,5.6l-6,3.4l-0.4,2.5
	l0.7,3l1.7,2.7l0.6,2.8l-2.5,2.4l-6.2,3.6l-7,8l-0.3,3.2l0.5,7l-1.2,2.6l-1.3,2.3l-0.8,3.2l-0.5,6.4l-0.6,1.6l-1,1.3l-0.5,1.4
	L486.3,299.7L486.3,299.7z"/>
<path id="TWN1164" class="st0" d="M485.7,63.2l-0.3,11.9l0.2,3l3.7,3.9l-0.4,2.5l-2.5,1.8l-4,1.5l-5.1-0.6l-10.6-4.4l-3-2.2
	l-3.7-3.4l-2.8-3.5l-1.7-3.5l-2.9-3.7l-0.6-2.9l3.2-2.2l7.2-3.1l4.4-2.9l1.4,0.9l2.4,2.7l3.9,1.4L485.7,63.2L485.7,63.2z"/>
<path id="TWN1165" class="st0" d="M275.2,187.2l4.4,11.1l3.9,4.4l6,4.5l12.1,5.7l3.9,3.4l0.7,5.2l-0.3,3.9l-0.8,3.5l-1,3.1l1,2.9
	l1,4l-1.3,4.6l-0.9,5.1l4.1,1l7.7-2.1l6.8-0.5l4.8,0.5l12.5-3.2l5,4l1.3,4.4l3.3,3.3l4.6,7.8l0.6,4.9l-3.7,2.6l-1.8,5.6l-4.9,2
	l-5.3-0.1l-4.2,3l-4.6,4.4l-5.9,3.2l-11.6,9.2l-6.8,2.9l-8.9,4.7l-5.4-2.1l-5-5.6l-6-2.4l-9.9-0.8l-5.5,3.3l-0.9,7.4l-5.2,2.8
	l-12.1,0.7l-11.6-6.7l-6.6-1.2l-7.3-3.6l-15.1-11.1l-6.3-5.5l-4.7-5l-9.2-14.3l7.2-8.1l1.9-4l0.9-6.6l2.2-5.6l5.9-10.4l1.6-6.3
	l1.5-2.7l6.8-2l1.9-2.1l1.1-2.6l1.4-2.5l4.2-4.3l4.6-3.4l5.6-1.5l7.1,1.3l-0.9-5.4l2.7-3.7l3.7-3.8l1.9-5.7l0.8-1.9l3.6-1.8l0.3-1.3
	l6.9,2.7l4.3,2.6l2.7,3.8l4.4,1.7l4.6-1.1L275.2,187.2L275.2,187.2z"/>
<path id="TWN1166" class="st0" d="M448.3,111.4l-4.2,1.7l-5.8-0.1l-4.8-1l-3.7-3.3l-3.8-4.3l-5.8-4.6l-3.9-6.7l1.5-7.4l-1.2-6.3
	l-5.7-5.5l-3.8-4.2l1.6-3l1.8-2.4l2.1-4.6l3.6-4l10.9-6.4l2.9-2.5l4-2l3.8,1.2l2.1,2.2l-0.5,3.6l0.4,3.5l3.2,6.8l2.5,10l3.9,3.5
	L451,80l-1.6,6.6l0.1,5.1l4.6,2.6l3.8,3.2l-2,4.3L448.3,111.4L448.3,111.4z"/>
<path id="TWN1167" class="st0" d="M466.8,55.4l-4.4,2.9l-7.2,3.1l-3.2,2.2l0.6,2.9l2.9,3.7l1.7,3.5l2.8,3.5l3.7,3.4l3,2.2l10.6,4.4
	l5.1,0.6l4-1.5l2.5-1.8l0.4-2.5l-3.7-3.9l-0.2-3l0.3-11.9l34.6,8.4l3.2,2l-1.6,3.7l-0.4,2.9l0.7,5.2l2.4,8.7l2.6,4.1l2.2,0.9l7-1
	l3.6,0.4l4.2,1.1l3.7,1.9l2,2.5l-8.7,4.3l-0.8-1.1l-3.3-1.9l-5.9,1.3l-8.4,4.4l-3.7,2.5l-11.2,2.3l-1.4,2.9l2.5,3.6l-1.6,3.8
	l-4.6,2.9l-3.5,1.2l-3.7,2l-3.3,4.1l-3.1,5l-5,3.6l-6.2,1.9l-13.5,8.1l-13,5.3l-3.8,2.3l-4.7,4l-2,4.9l0.2,4.2l1,3.2l0.4,2l-3.9,2.8
	l-6.6,3.2l-5,3.5l-3.8,3.3l-4.9,1.8l-5.7,1.6l-2.5-5.4l-8.9-8.5l-1.4-5.6l-0.8-5.2l3.1-3.7l1.5-5.3l-8.5-12.3l-5-2l-7.4,0.4
	l-5.1-2.9l1.3-6.7l-1-5.1l-5.4-5.1l-1-5.1l1-5.8l-0.2-6.2l3.7-4l13.1-3.9l3.3-3.4l1-4.2l-0.5-4.1l-5.1-7.5l-4.2-2.2l-4.1-1l-3.2-2.8
	l-4.7-3.1l-6.3-3l-4.2-4.6l11.2-2.1l4.8-1.8l6.1-5.2l1.9-0.9l2.2-0.4h3.1l3.5,1.1l1.9,2.7l1.2,2.7l1.5,1.6l3.5-1.4l-3.6-5.7
	l-5.8-5.9l-3.1-1.9l0.9-2.7l1.8-1.5l1.9-0.9l0.8-1l2.1-5.1l3.2-5.9l6.6-5.9l9.6-4.9l11-2.5l10.8,1.2l4.5,3.4l10,14.2l3.6,7.4
	l1.2-0.5l2.7-0.7l3-0.4l2.2,0.6l-0.1,0.9l-1.1,1.3l-1,1.8l0.1,2.2l1.1,1.2L466.8,55.4L466.8,55.4z M448.3,111.4l7.6-9.6l2-4.3
	l-3.8-3.2l-4.6-2.6l-0.1-5.1L451,80l-1.6-4.4l-3.9-3.5l-2.5-10l-3.2-6.8l-0.4-3.5l0.5-3.6l-2.1-2.2l-3.8-1.2l-4,2l-2.9,2.5
	l-10.9,6.4l-3.6,4l-2.1,4.6l-1.8,2.4l-1.6,3l3.8,4.2l5.7,5.5l1.2,6.3l-1.5,7.4l3.9,6.7l5.8,4.6l3.8,4.3l3.7,3.3l4.8,1l5.8,0.1
	L448.3,111.4L448.3,111.4z"/>
<path id="TWN1168" class="st0" d="M412.7,197l-3.1,0.9l-5.4,3.9l3.1,12.4l-2.2,3.8l-3.4,1.3l-3.3-0.6l-3.9,1.6l-0.5,1.5l-4.8-2.2
	l-7.3-4.1l-4-2.9l-5.5-0.9l-6.2-3.8L361,204l-0.5-4.3l4.6-6.5l1.9-7.8l-1.6-7.3l-0.4-5l-3.4-2.6l-4.3-2.2l-2.6-4.5l-3.4-3.5
	l-3.9,0.3l-3.8-0.7l-3.1-3.1l-4.2-3.1l-6.5-2.1l-3.5-3.7l1.1-5.8l-3.6-4.2l-6.8-2.2l-4.1-2l-4.3-1.2l-5-2l-4-8.7l-4.6-3.1l-13.7,1
	l-3.1-1.1l8.9-14.2l6.9-8.3l7.2-6.1l18.4-6.1l4.3-2.7l3.7-3.2l4.5-2.5l9-3.2l20.1-3.6l4.2,4.6l6.3,3l4.7,3.1l3.2,2.8l4.1,1l4.2,2.2
	l5.1,7.5l0.5,4.1l-1,4.2l-3.3,3.4l-13.1,3.9l-3.7,4l0.2,6.2l-1,5.8l1,5.1l5.4,5.1l1,5.1l-1.3,6.7l5.1,2.9l7.4-0.4l5,2l8.5,12.3
	l-1.5,5.3l-3.1,3.7l0.8,5.2l1.4,5.6l8.9,8.5L412.7,197L412.7,197z"/>
<path id="TWN1169" class="st0" d="M198.1,387.8l0.1,3.6l-4.3,1.6l-1.2,2.9l0.5,4l-2,4.6l-1.6,5.4l-0.1,5.7l-1.2,6.6l-0.9,13.4
	l2.1,6.3l3.6,3.3l3.9,1.4l5.6,2.9l-1,3.5l-3.8,1.5l-2.5,2.3l-2.4,1.6l-1,0.7l-12-2.4l-5.8,0.1l-12.2-6l-19.7-2.3l-11.6-4.4l-6.6-1.8
	l-7.6-0.4l-22,2.6l-7.6-4.4l0.8-1.4l1.6-7.1l1.2-3l7.1-6.8l2-2.8l2.7-7.8l4.2-7.7l5.7-16.1l2.7-4.7l3-3l2.5-1.7l2.2-1.1l1.6-1.4
	l0.6-3l1.2-2.8l5.1-4l1.2-3l0.6-10.1l0.9-2.8l2.7-2.6l11.3-13.2l5.8,1.9l4,3.5l2.7,6.3l1,7.6l4.5,5.4l11.9,3.5l4.3,3.6l3.2,5l2,4
	l0.1,4l1.2,3.3l4.3,0.8l5.4,3.5L198.1,387.8L198.1,387.8z"/>
<path id="TWN1170" class="st0" d="M50.5,591.4l-1.8,1.4l-0.4-1.1l2.4-3.1l0.9-2.4l1.1-1.5l0.6,0.5l0.1,1.1l-1.4,2L50.5,591.4
	L50.5,591.4z M52.7,578.8l-0.7-0.7l2-3.8l0.9-0.4l-0.5,1.9L52.7,578.8L52.7,578.8z M57.6,569.8l-0.1-4.4l0.5,0.4l0.1,2.9L57.6,569.8
	z M59,560.1l-0.8,1.6l-0.5-2L59,560.1z M57.7,554l-0.5,1.3l-1.3-2.1L57.7,554z M27.9,555l-3.2,1.6l3.8-5.4l13.9-14.1L53,523.6
	l2.5-0.8l-9,14.7L42,542l-2.9,3.5l-3.8,3.8l-3,2.1L27.9,555L27.9,555z M217.4,503.9l6.1,0.7l6.8,2.6l4.1,1.2l5.1,2.8l-0.3,5.3
	l-3,5.1l1.2,4.8l2.7,6.5l0.4,5.9l1.1,3.8l7.6,1.4l25.6,0.2l0.9,0.2l-18.5,9.4l-8.5,6.8l-3.6,6.8l-4.2,5l-7.7,4.3l-7.9,6.1l-4.5,5.4
	l-12.3,7.3l-5.8,0.6l-6.9-0.7l-3.6,3.5l-0.1,5l1.4,4.5l1,6.7l-8.4-1l-3.7-1.1l-5,0.6l-5.3,2.4h-3.8l-4.5-3.5l-1.6-4.6l1.8-14.2
	l-1-7.5l-9.9-10.1l-1.7-5.1l-2.1-4.2l-4-2.4l-7.2-2.4l-8.5,0.5l-15.2,2.8l-7.8,3.5l-6.1,4.6l-4.7,4.8l-6.6,5.1l-5.8,3.6l-2.5,4.9
	l-6.2,2.8l-7.2-1.8l-8.9-1.3l-5.2-2l3.8-0.3l3.3-1.4l1.4,0.5l-0.9-3.2l-2.2,1.6l-1.8-0.5l-2.5-0.1v-3.3l2.4-5.6l3.7-0.3L66,577
	l-3.7-10.5l-4.1-8l1.9-3.7v-1.9l-3.1-1.5l0.4-1.8l1.8-2l0.9-2.6l4-5.2l-8.5,0.5l-0.2-8.7l11.6-1.4l8.3,4.7l6.1,0.1l3.9-3.2l1.7-4.9
	l2.1-3l5.3-0.8l7-5.7l4.4-2.4l3.8-3.8l16.3-9.4l7.2-2l12.6-2.3l6.9-0.4l5.3,4.6l5,5.9l12.6,4.6l3.7-0.5l8.3-2.4l4.7,3.4l2.4,3.9
	l6.3-0.6l11.7-2.4l4-1.3v-3.4l0.3-5L217.4,503.9L217.4,503.9z M124.7,534.7l-3.8,4.1l0.9,5.6l6.1,2.4l7,4.5l7.3,1.7l6.8-2.7l4.5-0.6
	l3-2.2l-2.5-6.8l-2.5-4l-4.1-2.2l-5.6-2.1l-7.8,0.7L124.7,534.7L124.7,534.7z"/>
<path id="TWN1171" class="st0" d="M124.7,534.7l9.3-1.6l7.8-0.7l5.6,2.1l4.1,2.2l2.5,4l2.5,6.8l-3,2.2l-4.5,0.6l-6.8,2.7l-7.3-1.7
	l-7-4.5l-6.1-2.4l-0.9-5.6L124.7,534.7L124.7,534.7z"/>
<path id="TWN1172" class="st0" d="M486.3,299.7l0.6,0.8l1.6,2.9l0.2,1.1l-1.4,2.4l-5.8,5.7l-6.2,8.6l-4.7,3.7l-1.4,2l0.7,2.1
	l-0.9,1.5l-6.6,5.1l-2.5,2.4l-2.8,6l-2.9,12.2l-7.4,10.9l-1.5,4.4l0.2,4.7l1.8,5.2l1.5,2.3l1.3,1l0.8,1.4l0.1,3.2l-1.1,3.6l-3.7,5.8
	l-0.7,3.5l-0.4,6.4l-3.2,16.3l-6.4,17l-8,40.1l-4.8,9.8l-11,64.1l-3.5-1l-10.8,5.2l-3.9,5.4l1.7,6.9l0.6,6.9l-3.6,6.9l-3.4,5.2
	l-2.7,6.6l-2.4,8.4l-3.7,7.7l-4.8,13.2l-3.1,6.1l0.1,6.7l-0.9,6.2l-6.5,3.7l-8.2-1.1l-11.7-9.7l-9.2-16l-5.7-1.5l-6.3-0.9l-5-4.8
	l-6.1-2.9l-7.8-2.8l-5-8.1l-1.2-7.4l-0.3-2.5l-2.8-7.6l-6.3-5.2l-5.6-3.6l-1-4l1.4-3.2l5.6-2.4l3-5l-1.9-5.8l6-3.5l3.1-2.8l-1.7-6.2
	l1.5-2.7l1.5-4l5.2-3.9l7.4-1.6l7.4-0.3l5.3-4.7l1.3-8.5l4-5.2l7.6-2.8l4.5-3.1l1.6-5.1l3.2-12.6l1.2-8.4l-0.9-7.2l-1.2-5.4
	l-3.2-4.1l-2.1-4l5.7-9.4l0.2-3.7l2.5-7l3.9-8.5l3-8.8l1.6-9.9l0.6-7.6l-1.8-4.5l-2-3.3l2.3-7.6l5.1-10.7l8-10.4l0.3-3.9l-1.5-4.5
	l-5.2-3.4l-2.9-3.1l-0.2-9.9l3.7-2.9l6.6-2.2l5.2-2.4l-0.2-3.7l-1.4-6.2l2.8-2l1.2-2.1l3.4-1.7l3.1-3.8l1.3-5.1l3-5l7.5-4.7l2.4-6.2
	l0.4-4.2l4.7-4.9l2.5,2.1l6.5,3.1l15,3.8l8.3,3.2h6.5l4.9-4.5l2.4-6l3.8-0.9l18.5,11.1l11.1,1.7L486.3,299.7L486.3,299.7z"/>
<path id="TWN1173" class="st0" d="M375.9,325.8l1.4,6.2l0.2,3.7l-5.2,2.4l-6.6,2.2l-3.7,2.9l0.2,9.9l2.9,3.1l5.2,3.4l1.5,4.5
	l-0.3,3.9l-8,10.4l-5.1,10.7l-2.3,7.6l2,3.3l1.8,4.5l-0.6,7.6l-1.6,9.9l-3,8.8l-3.9,8.5l-2.5,7l-0.2,3.7l-5.7,9.4l2.1,4l3.2,4.1
	l1.2,5.4l0.9,7.2l-1.2,8.4l-3.2,12.6l-1.6,5.1l-4.5,3.1l-7.6,2.8l-4,5.2l-1.3,8.5l-5.3,4.7l-7.4,0.3l-7.4,1.6l-5.2,3.9l-1.5,4
	l-1.5,2.7l1.7,6.2l-3.1,2.8l-6,3.5l-0.7-2l-4.2-5.9l-5.8-2.2l-4.3-1l-0.9-0.2l-25.6-0.2l-7.6-1.4l-1.1-3.8l-0.4-5.9l-2.7-6.5
	l-1.2-4.8l3-5.1l0.3-5.3l-5.1-2.8l-4.1-1.2l-6.8-2.6l-6.1-0.7l-2.6-3.5l-8.2,0.9l-6.8,2l-5.8-2.5l-4-4.7l0.9-5.7l1.9-5.2l-1-7.7
	l1-7.2l2-4.7l-1.9-7.2l2.4-1.6l2.5-2.3l3.8-1.5l1-3.5l-5.6-2.9l-3.9-1.4l-3.6-3.3l-2.1-6.3l0.9-13.4l1.2-6.6l0.1-5.7l1.6-5.4l2-4.6
	l-0.5-4l1.2-2.9l4.3-1.6l-0.1-3.6l4.3,0.2l17.9,2.5l4.2-0.6l5-4.8l7.6-14.4l3.7-8.5l6.4-3l10.1,1.4l6-0.2l5.8-7.7l3-1.9l8.9,6.7
	l3.5-0.9l2.6-5.5l4.7-3.9l6.6,0.1l5-1.9l7.9-7.6l5.1-2.9l4.4-0.8l8.8-4.7l6.2-0.2l6.3-1l11.1-4.4l4.6-0.3l4.7,1L375.9,325.8
	L375.9,325.8z"/>
<path id="TWN1174" class="st0" d="M354.6,268.7l0.8-0.6l10.6-1l2.8,0.8l3.6,1l-0.6,5.5l1.4,3.8l4.9,1l4.4,2.6l3.7,2.5l4-0.6l4.7-2.3
	h4.9l5.9,4.7L401,291l-0.4,4.2l-2.4,6.2l-7.5,4.7l-3,5l-1.3,5.1l-3.1,3.8l-3.4,1.7l-1.2,2.1l-2.8,2l-13.4-1.3l-4.7-1l-4.6,0.3
	l-11.1,4.4l-6.3,1l-6.2,0.2l-8.8,4.7l-4.4,0.8l-5.1,2.9l-7.9,7.6l-5,1.9l-6.6-0.1l-4.7,3.9l-2.6,5.5l-3.5,0.9l-8.9-6.7l-3,1.9
	l-5.8,7.7l-6,0.2l-10.1-1.4l-6.4,3l-3.7,8.5l-7.6,14.4l-5,4.8l-4.2,0.6l-17.9-2.5l-4.3-0.2v-1.4l-5.4-3.5l-4.3-0.8l-1.2-3.3l-0.1-4
	l-2-4l-3.2-5l-4.3-3.6l-11.9-3.5l-4.5-5.4l-1-7.6l-2.7-6.3l-4-3.5l-5.8-1.9l0.6-0.8l0.8-3.3l3.3-2.7l2.2-6.5l2.7-12.3l9.3-16.1
	l2.8-9.9l3.4-5.5l13.3-14.8l9.2,14.3l4.7,5l6.3,5.5l15.1,11.1l7.3,3.6l6.6,1.2l11.6,6.7l12.1-0.7l5.2-2.8l0.9-7.4l5.5-3.3l9.9,0.8
	l6,2.4l5,5.6l5.4,2.1l8.9-4.7l6.8-2.9l11.6-9.2l5.9-3.2l4.6-4.4l4.2-3l5.3,0.1l4.9-2l1.8-5.6L354.6,268.7L354.6,268.7z"/>
<path id="TWN1176" class="st0" d="M192.9,458.4l1.9,7.2l-2,4.7l-1,7.2l1,7.7l-1.9,5.2l-0.9,5.7l4,4.7l5.8,2.5l6.8-2l8.2-0.9l2.6,3.5
	h-0.5l-0.3,5v3.4l-4,1.3l-11.7,2.4l-6.3,0.6l-2.4-3.9l-4.7-3.4l-8.3,2.4l-3.7,0.5l-12.6-4.6l-5-5.9l-5.3-4.6l-6.9,0.4l-12.6,2.3
	l-7.2,2l-16.3,9.4l-3.8,3.8l-4.4,2.4l-7,5.7l-5.3,0.8l-2.1,3l-1.7,4.9l-3.9,3.2l-6.1-0.1l-8.3-4.7l-11.6,1.4l4.6-5.2L59.8,510
	l0.7-12.3l2.8-9.8l4.3-7.7l1.3-10l2.3-8.8l1.3-3l6.1-8.1l1.1-2.8l0.7-1.5l5.6-4.3l0.8-1.6l7.6,4.4l22-2.6l7.6,0.4l6.6,1.8l11.6,4.4
	l19.7,2.3l12.2,6l5.8-0.1l12,2.4L192.9,458.4L192.9,458.4z"/>
<path id="TWN1177" class="st1" d="M440.1,961.2l-5.5,1.7l-7.3-2.9l-6.8-4.8l-3.9-3.7l1.2-2.7l-0.1-2.5l-1-2.4l-1.7-2.1h19.5v1.8
	l-1.3,3.5l-0.4,2.9l0.9,2.5l4.7,3.5l2,2.5L440.1,961.2L440.1,961.2z M416.1,783.6l-0.1,1.1l-3.4-0.4l-0.4-0.6l-2.7-1l-2.8-4.9
	l-1.4-4.3l0.6-0.6l10-0.7l1.1,0.6l0.8,2l-0.8,3.9l-0.9,1.6l-0.4,1.7L416.1,783.6L416.1,783.6z M253,897.7l-4.5,0.3l-10.2-4.7
	l-4.6-4.9l-3.2-5.9l-0.6-6.1l0.1-5.7l-3.1-4.4l-3.4-1.7l-2.7-3.9l0.5-4.5l2.1-3.9l5.3-3.2l2.5-3.8l-4.6-5.6l-2.6-5v-5.4l-1.1-7.1
	l-2-6.1l-1.2-6.5l0.8-14.7l3-7.5l3.7-6.6l2.4-6.6l5.4-4.5l7.6-1.6l4.8-2.7l9.8-4.1l2-5l0.1-5.2l2.8-13.8l-5.5-3.6l-5.4-1.3l-0.7-4.9
	l-3.5-6.6l3.9-0.5l-1.2-4.9l-6.2-6.4l-3-4.6l-1.3-8.1l2.3-9.8l8.5-7.2l4.3-5.9l0.1-11.2l3-13.2l-2.1-9.9l0.8-6.9l7.4-4l2.7-4.9
	l-2.3-6l0.9-5.7l7.8-5.1l4-3.9l6.4-4.1l15.6-3.8l1.2,7.4l5,8.1l7.8,2.8l6.1,2.9l5,4.8l6.3,0.9l5.7,1.5l9.2,16l11.7,9.7l8.2,1.1
	l6.5-3.7l0.9-6.2l-0.1-6.7l3.1-6.1l4.8-13.2l3.7-7.7l2.4-8.4l2.7-6.6l3.4-5.2l3.6-6.9l-0.6-6.9l-1.7-6.9l3.9-5.4l10.8-5.2l3.5,1
	l-4.6,26.4l-2.2,4.9l-7.1,9.4l-2.6,4.9l-2.1,6.1l-1.5,11.4l0.2,10.2l-1,9.7l-4.9,9.9l-2.1,2.1l-4.7,3.5l-2.2,2.2l-1,2.3l-1.7,5.8
	l-4.8,8.4l-2.9,13.1l-2.1,5.9l-10.3,14.8l-1.3,2.7l-13.9,11.8l-3.3,3.8l-0.4,2.7l0.6,6.2l-0.2,2.8l-1.2,3.2l-2.2,3.5l-4.7,6.1
	l-4.7,4.5l-16.1,10.7l-10.8,11.9l-2.7,1.4l-2.1,2.7l-5.2,13.5l-2.6,5l-8,10l-3.3,6l-1.9,12.3l-4.8,16.8l-9.5,16.7l-1.4,5.7
	l-1.7,16.1L253,897.7L253,897.7z"/>
<path id="TWN3414" class="st0" d="M-128.4,624.7l-1.8,0.9l-1.3-1.5l-1.5-4.7l1-1.2l3.8-1.3l2.7,0.7l0.1,2.1l-0.2,1.6l-1.2,1.2
	L-128.4,624.7z M-129.6,612.7l-1.7,3.1l-2.2-0.6l-2-2.5l-0.3-2.5l1.2-1.1l3.2,0.5L-129.6,612.7z M-80.8,609.5l-0.4,0.1l-1.2-1.5
	l0.3-0.6l2.5-0.2l0.8,2L-80.8,609.5L-80.8,609.5z M-66.8,604.9l0.3,0.2h2.3v1.3l-1.1,1.5l-0.7,1.8l-1.1-2.8L-66.8,604.9L-66.8,604.9
	z M-100.3,575.3l-1.7,0.1l-3,1.8l-0.4-0.4l0.4-1.3l1.1-1.5l0.7-0.6l1.6-0.3l1.5,0.9L-100.3,575.3z M-108.7,568.6l0.1,2.3l0.5,1.6
	l1.4,1.2l-0.6,1.6l-1.2,1.2l0.6,1.9l-1.5,0.6l-3.1-0.3l-1.6-0.7l1.4-3.1l-0.2-4.2l-0.9,0.6l-2,0.6l-0.6-2.3l2.1-5.1l1.6-0.3l2.7,3.6
	L-108.7,568.6L-108.7,568.6z M-158.2,562.9l2.4,0.6v1.6l-0.6,0.9l-2.1,0.6l-1.1-1.1L-158.2,562.9L-158.2,562.9z M-99.7,538.1
	l-3.2,2.1l-2.1,0.6l-2.2,1.1l-1.3-0.5l-0.3-1.8l0.7-0.6l1.8,0.5l4-2L-99.7,538.1L-99.7,538.1z M-80.2,510.1l-0.6,1.3l4-1.3l3.1,0.4
	l2.3-0.2l1.6-2.7l4.7,8.7l1.2,4l-0.5,3l-2-2l-2.5-1.7l-2.8-0.5l-4,2.2l-2.8,0.3l-1.4,0.8l-0.7,1.5l-1.1,4.1l-0.7,1.2l-4.7,2.7
	l-4.8,0.7l-4.8-1.9l-4.9-4.9l1.3-2.5l2.7,3.2l4,0.9l4.3-1.2l3.5-2.9l-2.4-0.9l-2-1.2l-1.5-1.6l-1.4-2.2l-0.8,1.4l-1,0.6l-0.3-4
	l0.3-4h1.8l2.1,0.5l7.4-4.6l4.6-1.6L-80.2,510.1L-80.2,510.1z M-120.1,519.4h-3.8l0.7-2.1l1.2-1.3l1.9-0.5l2.5-0.2l2.2-0.9l0.6-2
	l0.1-4.8l3.2-10.4l3.1-3l4.2,3.6l-2.5,1.5l-1.7,3.6l-2.8,8.5l-0.1,2.2l0.7,2l-0.3,1.3l-3,0.5l-2.2,0.1l-1.5,0.3l-1.3,0.6
	L-120.1,519.4L-120.1,519.4z M-86.3,501.5l-2.2,0.7l-1.1-1.5l-0.9-3.5l-2-2.9l-4.3-4.3l5.5-4.1l3.3,1.7l3.2,2.8l1.4,2.9l-2.5,2.4
	l1,3.5L-86.3,501.5L-86.3,501.5z M-83.7,471.1L-84,472l-1.3-3l-0.2-1.4l1.8-1.5l1.6-3l0.5,1.1l2.5,1.4l-0.4,1.8l-2.2,1.3
	L-83.7,471.1z"/>
<path id="TWN3415" class="st0" d="M-439.9,274.6l-5.2,1.5l-3-1.2l5-9.9l1.3-1.4l2.1-0.5l2.1-0.1l2,1.4l1.6,1.8v3.1l-1.4,2.1
	l-1.6,0.1l-1.1,1.2l-0.6,1.2L-439.9,274.6L-439.9,274.6z M-384.9,247.8l4.7,12.6l-1,8.8l-3.9,4.6l-6.8-4.3l-5-1.6l-8.1,0.8l-7.1,4.5
	l-3.9,6.1l-3.4,1.7l-3.9-1.9l-2.7-0.1l-2.4-1.1l-1.2-2.1l0.5-0.7l2.1-2.8l0.7-1.2l0.2-2.1l-0.1-2.5l-0.7-4.3l-1.8-4.2l-0.2-2.1
	l1.5-0.9l7.6-3.7l10,6.6l7-0.9l1.1-8.7l2.3-5.5l7.5-1.5L-384.9,247.8L-384.9,247.8z M-115.6,110.1l-2.9,1.5l-1.3-1.2l0.7-3.2
	l2.4-1.4l1.7,0.3l0.2,1.9L-115.6,110.1L-115.6,110.1z"/>
<path id="TWN5128" class="st0" d="M20.1-177.9l-0.2,2.3l-1.9,2.1l-4.1,2l2.5-5.6l2.5,0.5l0.1-0.9L20.1-177.9z M8.3-178.7l-2,2.1
	L3.9-180l3.6-1.3l2.7,1.5L8.3-178.7L8.3-178.7z M5.1-233.6l1,0.5l4.4-2.6h2.8v1.8l-2.8,3.2L5-227.8l-1.7,0.3l-2.5-1.7L0-231.6
	l0.5-2.8l1.1-2l1-0.2l0.3,2.2C2.9-234.4,5.1-233.6,5.1-233.6z M26.4-251.4l-0.6,2.2l0.6,1.2l-1.4-0.2l-1.5-2.2l-1.1-0.7l-2.3,1.3
	l-1-0.4l-1.3,0.3l-1.5,1.7l-1.2,5l-1.1-0.7l-0.5-1.5l0.5-4.3l0.5-1.6l1.1-0.7l2.7-0.9l0.7-0.9l2.2-1.3l2.5,0.4l1.3,1.9L26.4-251.4
	L26.4-251.4z M156.2-297l-1.2,0.4l-1.1-0.4l-1.4,1.3l-1.1,2.1l-0.3-0.5l-1.2-0.2l-1.8-1l1.1-1.7l-0.5-1.4l0.9-0.6l2.2-1.8l2.6,1.5
	l0.6,1.3L156.2-297z"/>
<circle id="_x30_" class="st0" cx="444.9" cy="56.2" r="0"/>
<circle id="_x31_" class="st0" cx="220.8" cy="224.3" r="0"/>
<circle id="_x32_" class="st0" cx="120.6" cy="719.6" r="0"/>
<g>
	<path class="st2" d="M443,29.1c-9.1,0-16.5,7.4-16.5,16.5s7.4,16.5,16.5,16.5s16.5-7.4,16.5-16.5S452.1,29.1,443,29.1z"/>
	<path class="st3" d="M443,15.9c-16.4,0-29.7,13.4-29.7,29.9c0,23.4,26.9,47.6,28,48.6c0.5,0.4,1.1,0.6,1.6,0.6s1.2-0.2,1.6-0.6
		c1.1-1,28-25.2,28-48.6C472.7,29.3,459.4,15.9,443,15.9z M443,62.1c-9.1,0-16.5-7.4-16.5-16.5s7.4-16.5,16.5-16.5
		s16.5,7.4,16.5,16.5S452.1,62.1,443,62.1z"/>
</g>
<g>
	<path class="st2" d="M217.4,283.1c-9.1,0-16.5,7.4-16.5,16.5s7.4,16.5,16.5,16.5s16.5-7.4,16.5-16.5S226.5,283.1,217.4,283.1z"/>
	<path class="st3" d="M217.4,269.9c-16.4,0-29.7,13.4-29.7,29.9c0,23.4,26.9,47.6,28,48.6c0.5,0.4,1.1,0.6,1.6,0.6s1.2-0.2,1.6-0.6
		c1.1-1,28-25.2,28-48.6C247.1,283.3,233.8,269.9,217.4,269.9z M217.4,316.1c-9.1,0-16.5-7.4-16.5-16.5s7.4-16.5,16.5-16.5
		s16.5,7.4,16.5,16.5S226.5,316.1,217.4,316.1z"/>
</g>
<g>
	<path class="st2" d="M113.4,609.7c-9.1,0-16.5,7.4-16.5,16.5s7.4,16.5,16.5,16.5s16.5-7.4,16.5-16.5S122.5,609.7,113.4,609.7z"/>
	<path class="st3" d="M113.4,596.5c-16.4,0-29.7,13.4-29.7,29.9c0,23.4,26.9,47.6,28,48.6c0.5,0.4,1.1,0.6,1.6,0.6s1.2-0.2,1.6-0.6
		c1.1-1,28-25.2,28-48.6C143.1,609.9,129.8,596.5,113.4,596.5z M113.4,642.6c-9.1,0-16.5-7.4-16.5-16.5s7.4-16.5,16.5-16.5
		s16.5,7.4,16.5,16.5S122.5,642.6,113.4,642.6z"/>
</g>
<g>
	<path class="st2" d="M297.7,680.6c-9.1,0-16.5,7.4-16.5,16.5s7.4,16.5,16.5,16.5s16.5-7.4,16.5-16.5S306.8,680.6,297.7,680.6z"/>
	<path class="st3" d="M297.7,667.4c-16.4,0-29.7,13.4-29.7,29.9c0,23.4,26.9,47.6,28,48.6c0.5,0.4,1.1,0.6,1.6,0.6s1.2-0.2,1.6-0.6
		c1.1-1,28-25.2,28-48.6C327.4,680.8,314.1,667.4,297.7,667.4z M297.7,713.6c-9.1,0-16.5-7.4-16.5-16.5s7.4-16.5,16.5-16.5
		s16.5,7.4,16.5,16.5C314.2,706.2,306.8,713.6,297.7,713.6z"/>
</g>
</svg>
