<?xml version="1.0" encoding="utf-8"?>
<!-- Generator: Adobe Illustrator 21.1.0, SVG Export Plug-In . SVG Version: 6.00 Build 0)  -->
<svg version="1.1" id="圖層_1" xmlns="http://www.w3.org/2000/svg" xmlns:xlink="http://www.w3.org/1999/xlink" x="0px" y="0px"
	 viewBox="0 0 500 300" style="enable-background:new 0 0 500 300;" xml:space="preserve">
<style type="text/css">
	.st0{fill:#116975;}
	.st1{font-family:'Roboto-Bold';}
	.st2{font-size:58.9279px;}
	.st3{fill:#9B7855;}
	.st4{fill:#464655;}
	.st5{fill:#C39B6E;}
	.st6{fill:#FFDEB7;}
	.st7{fill:#E1BD93;}
	.st8{stroke:#000000;stroke-miterlimit:10;}
	.st9{fill:#D3D3D3;stroke:#464655;stroke-width:4;stroke-miterlimit:10;enable-background:new    ;}
	.st10{fill:#464655;enable-background:new    ;}
</style>
<text transform="matrix(1 0 0 1 19.6667 50.8071)" class="st0 st1 st2">Find Free Coupon</text>
<g>
	<g>
		<g>
			<path class="st3" d="M231.3,103.4c16.8,27,18,48.6,7,55.4c-10.9,6.8-29.8-3.8-46.6-30.8s-25.1-60.1-14.2-66.9
				C188.5,54.3,214.5,76.4,231.3,103.4z"/>
			<path class="st4" d="M234.8,116.8c9.4,15,8.6,28,0.8,32.9c-7.8,4.9-19.8-0.2-29.2-15.2s-20.4-49.1-12.6-54
				S225.4,101.8,234.8,116.8z"/>
		</g>
		<g>
			<path class="st3" d="M276.3,103.4c-16.8,27-18,48.6-7,55.4c10.9,6.8,29.8-3.8,46.6-30.8c16.8-27,25.1-60.1,14.2-66.9
				C319.1,54.3,293.1,76.4,276.3,103.4z"/>
			<path class="st4" d="M272.8,116.8c-9.4,15-8.6,28-0.8,32.9s19.8-0.2,29.2-15.2s20.4-49.1,12.6-54S282.2,101.8,272.8,116.8z"/>
		</g>
		<path class="st5" d="M309.4,205.9c0,39.3-24.8,62.9-55.3,62.9s-55.3-23.5-55.3-62.9s24.8-79.6,55.3-79.6S309.4,166.6,309.4,205.9z
			"/>
		<ellipse class="st4" cx="281.9" cy="186.4" rx="9.1" ry="9.2"/>
		<ellipse class="st5" cx="254.1" cy="269.2" rx="13.9" ry="9.2"/>
		<ellipse class="st4" cx="227" cy="186.4" rx="9.1" ry="9.2"/>
		<path class="st6" d="M276,251.8c0,4.1-3.9,17.2-10.3,18.6c-3.3,0.7-7.5-3.2-11.1-3.2c-3.7,0-8.7,3.9-11.9,3.2
			c-6.4-1.4-10.3-14.5-10.3-18.6c0-12.2,9.8-22,21.9-22S276,239.7,276,251.8z"/>
		<g>
			<path class="st7" d="M254.1,230.6c6,0,11.4,2.4,15.4,6.4c-1.9-15.3-5-35.9-8.1-42.5c-2.2-5-5.1-5.2-7.7-5.2c-2.6,0-4.8,0.3-7,5.2
				c-3.1,7-5.8,27.1-7.5,42C243.1,232.8,248.4,230.6,254.1,230.6z"/>
		</g>
		<path class="st8" d="M269.6,234c0,9.5-7,17.2-15.5,17.2s-15.5-7.7-15.5-17.2C238.6,224.5,269.6,224.5,269.6,234z"/>
	</g>
	<g>
		<path class="st9" d="M225.1,268.1c9.2,27.5-13.2,28.8-38.7,28.8s-42-2.4-35.8-26c4-15.4,10.3-31.7,35.8-31.7c0.6,0,1.2,0,1.8,0
			C212.9,239.8,220.1,253.3,225.1,268.1z"/>
		<ellipse class="st10" cx="174.3" cy="282.4" rx="5.8" ry="14.3"/>
		<ellipse class="st10" cx="199.1" cy="278.3" rx="7.4" ry="18.4"/>
	</g>
	<g>
		<path class="st9" d="M280.3,268.1c-9.2,27.5,13.2,28.8,38.7,28.8s42-2.4,35.8-26c-4-15.4-10.3-31.7-35.8-31.7c-0.6,0-1.2,0-1.8,0
			C292.5,239.8,285.2,253.3,280.3,268.1z"/>
		<ellipse class="st10" cx="331" cy="282.4" rx="5.8" ry="14.3"/>
		<ellipse class="st10" cx="306.2" cy="278.3" rx="7.4" ry="18.4"/>
	</g>
</g>
</svg>
