<?xml version="1.0" encoding="utf-8"?>
<!-- Generator: Adobe Illustrator 21.1.0, SVG Export Plug-In . SVG Version: 6.00 Build 0)  -->
<svg version="1.1" id="_x31__x2C_5" xmlns="http://www.w3.org/2000/svg" xmlns:xlink="http://www.w3.org/1999/xlink" x="0px"
	 y="0px" viewBox="0 0 512 512" style="enable-background:new 0 0 512 512;" xml:space="preserve">
<style type="text/css">
	.st0{fill:#FFFFFF;}
</style>
<g>
	<path class="st0" d="M450.4,426.7c-25.3,0-47.8-15.4-57.2-39.1l-26.4-59.6c-1.2-2.9-3.3-4.4-5.6-4.4H150.8c-2.3,0-4.5,1.5-5.4,3.8
		l-26.9,60.8c-9.2,23.2-31.6,38.5-57,38.5c-18.5,0-35.9-8.3-47.6-22.8C2,389.2-2.5,370.1,1.4,351.5l42.5-201.1
		c8-37.7,41.5-65.1,79.6-65.1h264.9c38.2,0,71.6,27.4,79.6,65.1l42.5,201.1c3.9,18.6-0.6,37.7-12.6,52.4
		C486.3,418.4,468.9,426.7,450.4,426.7L450.4,426.7z M150.8,291.6h210.3c15.6,0,29.4,9.4,35.1,24l26.4,59.6
		c4.8,12.1,15.6,19.5,27.7,19.5c8.9,0,17.2-4,22.8-10.9c5.8-7.2,8-16.5,6.1-25.6l-42.5-201.1c-4.9-23-25.2-39.7-48.3-39.7H123.5
		c-23.1,0-43.5,16.7-48.3,39.7L32.7,358.1c-1.9,9.1,0.3,18.4,6.1,25.6c5.6,7,13.9,10.9,22.8,10.9c12.1,0,22.9-7.4,27.4-18.9
		l26.9-60.8C121.5,301,135.2,291.6,150.8,291.6L150.8,291.6z"/>
</g>
<g>
	<path class="st0" d="M160,256c-8.8,0-16-7.2-16-16v-74.7c0-8.8,7.2-16,16-16s16,7.2,16,16V240C176,248.8,168.8,256,160,256z"/>
</g>
<g>
	<path class="st0" d="M197.3,218.7h-74.7c-8.8,0-16-7.2-16-16s7.2-16,16-16h74.7c8.8,0,16,7.2,16,16S206.2,218.7,197.3,218.7z"/>
</g>
<g>
	<path class="st0" d="M352,256c-29.4,0-53.3-23.9-53.3-53.3s23.9-53.3,53.3-53.3s53.3,23.9,53.3,53.3S381.4,256,352,256z M352,181.3
		c-11.8,0-21.3,9.6-21.3,21.3S340.2,224,352,224s21.3-9.6,21.3-21.3S363.8,181.3,352,181.3z"/>
</g>
</svg>
