<?xml version="1.0" encoding="utf-8"?>
<!-- Generator: Adobe Illustrator 21.1.0, SVG Export Plug-In . SVG Version: 6.00 Build 0)  -->
<svg version="1.1" id="Capa_1" xmlns="http://www.w3.org/2000/svg" xmlns:xlink="http://www.w3.org/1999/xlink" x="0px" y="0px"
	 viewBox="0 0 512 512" style="enable-background:new 0 0 512 512;" xml:space="preserve">
<style type="text/css">
	.st0{fill:#116975;stroke:#FFFFFF;stroke-miterlimit:10;}
	.st1{fill:#E24444;}
	.st2{font-family:'Roboto-Bold';}
	.st3{font-size:138px;}
	.st4{fill:#FFFFFF;}
	.st5{fill:none;stroke:#333333;stroke-linecap:round;stroke-linejoin:round;stroke-miterlimit:10;}
</style>
<path class="st0" d="M0,229.5c-0.2-0.3,0.1-0.6,0.4-0.5c9.8,2.8,109.2,28.8,161.7-36c55.2-68.2,110.5-123.5,178.7-94.2
	s81.2,32.5,97.5,16.2c0,0,35.7-58.5,35.7-39c0,13.6-1.6,17.7-2.5,19c-0.3,0.4-0.1,0.9,0.2,1.1c4.3,2.6,21.8,13.6,21.8,22.2
	c0,0,26,19.5,16.2,26c-9.7,6.5-32.5-3.2-32.5-3.2s-13-6.5-26,6.5c-13,13-35.7,32.5-35.7,39c0,6.5-3.2,16.2,6.5,32.5
	s-16.2,39-16.2,29.2c0-9.7,6.5-16.2,6.5-16.2s3.2-9.7-3.2-16.2c-6.5-6.5-9.7-26-9.7-29.2c0-3.2-13,6.5-22.7,6.5s-42.2,0-48.7-6.5
	c-6.5-6.5-9.7,6.5-9.7,6.5s-6.5,35.7-22.7,52s-35.7,39-29.2,48.7c6.5,9.7,29.2,45.5,29.2,48.7c0,3.2,9.7,6.5,13,9.7
	c2.5,2.5-4.7,3.1-8.1,3.2c-1.1,0-2.2-0.2-3.1-0.7c-3.4-1.8-11.6-6.4-11.6-9c0-3.2-35.7-48.7-45.5-52c-9.7-3.2,9.7-19.5,9.7-19.5
	s32.5-39,0-78c0,0-3.2-16.2-29.2-3.2s-100.7,62.3-152.7,58.5C67.9,251.5,10.9,248.3,0,229.5z"/>
<text transform="matrix(1 0 0 1 22.3333 485.333)" class="st1 st2 st3">TO TOP</text>
<circle class="st4" cx="480.8" cy="113.9" r="7.6"/>
<circle cx="484.1" cy="114.5" r="3.7"/>
<path class="st5" d="M484.1,133.1c0,0,11,12,26.5,8.5"/>
</svg>
